<svg xmlns="http://www.w3.org/2000/svg" width="24" height="20" fill="none"><path fill="#fff" d="M24 2.368a9.641 9.641 0 0 1-2.828.794A5.037 5.037 0 0 0 23.337.37a9.717 9.717 0 0 1-3.127 1.226A4.86 4.86 0 0 0 16.616 0c-3.179 0-5.515 3.041-4.797 6.199C7.728 5.989 4.1 3.979 1.671.924c-1.29 2.27-.669 5.238 1.523 6.741a4.81 4.81 0 0 1-2.229-.632c-.054 2.34 1.581 4.528 3.949 5.015a4.816 4.816 0 0 1-2.224.086c.626 2.006 2.444 3.465 4.6 3.506A9.725 9.725 0 0 1 0 17.732 13.689 13.689 0 0 0 7.548 20c9.142 0 14.307-7.917 13.995-15.018A10.17 10.17 0 0 0 24 2.368Z"/></svg>